<svg width="162" height="162" fill="none" xmlns="http://www.w3.org/2000/svg"><path fill="#161A34" d="m67.03 97.44-2.73-2.72 29.3-29.3 2.72 2.73z"/><path fill="#161A34" d="M69.89 68.96v-3.85h26.98v3.85z"/><path fill="#161A34" d="M96.9 92.1h-3.86V65.14h3.85zM88.43 25.06l-.58 3.21c-.14.14-.36.28-.65.42-.28.14-.64.24-1.08.3a5.18 5.18 0 0 1-3-.6c-.4-.26-.73-.59-.99-1-.25-.4-.42-.86-.5-1.39a5.29 5.29 0 0 1 .04-1.75l.1-.58c.12-.64.3-1.19.55-1.66.25-.47.55-.85.92-1.14.36-.3.77-.5 1.22-.6.46-.1.96-.1 1.5 0 .69.12 1.23.34 1.64.65.42.3.7.68.88 1.13.18.45.25.94.22 1.47l-1.42-.26c.01-.3-.03-.57-.13-.83a1.4 1.4 0 0 0-.47-.64c-.21-.18-.52-.3-.9-.37a1.98 1.98 0 0 0-.92.03 1.7 1.7 0 0 0-.74.45c-.2.21-.38.49-.53.83-.15.34-.26.73-.35 1.19l-.1.6c-.08.45-.1.87-.08 1.25.04.37.13.7.27.98s.34.5.58.68c.25.17.54.29.88.35.33.06.6.08.83.06a1.59 1.59 0 0 0 .87-.29l.3-1.66-1.75-.32.2-1.08 3.19.57ZM95.96 29.94l-.36 1.1-4.3-1.41.36-1.1 4.3 1.4Zm-1.6-8.28-2.67 8.1-1.4-.46 2.67-8.1 1.4.46Zm2.23 4.48-.36 1.1L92.49 26l.36-1.09 3.74 1.23Zm1.64-3.2-.36 1.1-4.28-1.4.37-1.11 4.27 1.4ZM104.71 25.17l-3.81 7.63-1.3-.65 3.8-7.64 1.31.66Zm2.4 1.2-.53 1.04-6.07-3.03.52-1.05 6.08 3.03ZM115.23 31l-5.11 6.83-1.18-.88 5.12-6.82 1.17.88ZM123.5 37.82l-6.23 5.83-1.01-1.07 1.84-6.97-4.46 4.17-1-1.07 6.22-5.83 1.01 1.07-1.84 6.99 4.46-4.19 1 1.07ZM131.8 47.86l-7.41 4.23-.73-1.26 7.41-4.23.72 1.26Zm1.32 2.33-1.02.58-3.36-5.9 1.01-.58 3.37 5.9ZM133.5 59.92l-.45.16c-.6.21-1.18.33-1.72.34a3.74 3.74 0 0 1-1.47-.24 3.1 3.1 0 0 1-1.15-.78 3.59 3.59 0 0 1-.75-1.26 3.23 3.23 0 0 1 .2-2.78c.23-.42.56-.8.98-1.13.42-.33.94-.6 1.55-.82l.44-.16c.6-.21 1.18-.33 1.72-.33.53-.01 1.03.07 1.47.25.45.17.83.43 1.15.77.33.35.58.77.75 1.26.18.5.25.98.21 1.46-.03.47-.17.91-.4 1.33-.24.41-.57.78-1 1.11-.42.33-.93.6-1.54.82Zm-.94-1.23.45-.16c.45-.16.83-.34 1.14-.55.32-.2.56-.44.73-.69.18-.25.29-.51.32-.8.03-.29 0-.58-.11-.89-.1-.3-.27-.55-.47-.75-.2-.2-.46-.34-.75-.43-.3-.08-.63-.1-1-.07-.38.03-.79.13-1.24.29l-.45.16c-.45.16-.83.34-1.15.55-.31.21-.56.45-.74.7-.17.26-.28.53-.31.8-.04.29 0 .58.1.89a1.75 1.75 0 0 0 1.22 1.18c.3.08.64.1 1.02.06.38-.03.79-.13 1.24-.29ZM140 66.98l.25 1.44-5.61 1a2.65 2.65 0 0 1-2.85-1.08c-.3-.43-.5-.94-.61-1.52-.1-.6-.1-1.17.03-1.68.14-.51.4-.94.78-1.3.38-.34.9-.57 1.53-.68l5.61-1 .26 1.44-5.61 1c-.4.07-.73.2-.96.39-.24.18-.4.41-.47.69-.08.27-.09.58-.02.93.06.35.17.63.34.86.17.23.4.4.68.49.28.09.63.1 1.03.03l5.62-1ZM135.7 76.83l.04 1.46a3.38 3.38 0 0 1-1.5-.44 2.79 2.79 0 0 1-1.05-1.1 3.76 3.76 0 0 1-.41-1.74 3.13 3.13 0 0 1 1.04-2.53c.34-.3.76-.55 1.26-.72.49-.16 1.04-.25 1.66-.26l.7-.02a5.4 5.4 0 0 1 1.67.21c.5.16.93.38 1.29.68.36.3.64.66.83 1.08.2.42.3.9.31 1.44.02.68-.1 1.26-.34 1.73a2.7 2.7 0 0 1-1.01 1.11c-.44.27-.94.44-1.51.51l-.03-1.47c.36-.04.68-.13.94-.27.26-.14.45-.33.58-.59.14-.25.2-.59.2-1-.01-.33-.08-.62-.21-.87a1.66 1.66 0 0 0-.56-.62 2.65 2.65 0 0 0-.9-.36c-.36-.08-.76-.11-1.21-.1l-.73.01c-.43.01-.81.06-1.17.14-.34.08-.64.2-.88.37a1.7 1.7 0 0 0-.57.62c-.13.24-.2.54-.2.88.02.42.09.76.23 1.01.14.26.33.46.59.58.26.14.58.22.95.26ZM137.78 86.8l-1.15-.18.73-4.47 1.15.19-.73 4.47Zm4.19-3.53-8.42-1.37.24-1.46 8.42 1.38-.24 1.45Zm-.85 5.23-8.42-1.38.23-1.44 8.42 1.37-.23 1.45ZM125.78 115.31l-2.5-2.1a3.52 3.52 0 0 1 .24-1.86 5.18 5.18 0 0 1 2.02-2.29c.42-.22.87-.34 1.35-.37.48-.02.96.07 1.46.26s1 .5 1.5.91l.45.38c.5.42.89.85 1.17 1.3.28.44.46.9.53 1.36.08.46.05.91-.1 1.36-.13.45-.38.88-.73 1.3-.45.54-.9.9-1.38 1.1-.47.2-.95.27-1.42.2a3.5 3.5 0 0 1-1.39-.54l.93-1.1c.26.15.52.25.79.3.26.05.53.02.79-.09.26-.1.52-.3.77-.6a2 2 0 0 0 .43-.81 1.7 1.7 0 0 0-.02-.86 2.8 2.8 0 0 0-.45-.88c-.22-.3-.51-.6-.86-.89l-.47-.39c-.35-.3-.7-.53-1.05-.69a2.74 2.74 0 0 0-.98-.26 1.89 1.89 0 0 0-1.62.76c-.22.26-.37.49-.47.69a1.57 1.57 0 0 0-.18.9l1.3 1.09 1.14-1.36.83.7-2.08 2.48ZM117.53 119.66l-.78-.87 3.37-3.03.78.87-3.37 3.03Zm7.98 2.73-5.7-6.35 1.1-.98 5.7 6.35-1.1.98Zm-5-.3-.77-.85 2.93-2.63.77.86-2.93 2.62Zm1.96 3.03-.79-.87 3.35-3 .79.87-3.35 3ZM117.45 129.45l-4.73-7.1 1.21-.8 4.74 7.09-1.22.81Zm-2.22 1.49-.65-.98 5.64-3.77.66.98-5.65 3.77ZM107.27 135.6l-3.38-7.83 1.35-.58 3.38 7.83-1.35.58ZM96.95 139.46l-1.92-8.32 1.43-.33 5.1 5.1-1.37-5.96 1.44-.33 1.91 8.31-1.43.33-5.12-5.1 1.38 5.97-1.42.33ZM84.1 141.56l.07-8.53h1.45l-.06 8.54-1.46-.01Zm-2.68-.02.01-1.18 6.8.06-.02 1.17-6.79-.05ZM72.77 136.95l.09-.46c.12-.63.3-1.19.56-1.66.26-.47.58-.86.95-1.15.37-.3.79-.5 1.25-.6.46-.11.95-.12 1.47-.02a3.22 3.22 0 0 1 2.3 1.56c.25.4.41.88.5 1.42.07.53.04 1.12-.07 1.75l-.09.46c-.12.63-.3 1.18-.57 1.65-.26.47-.58.86-.95 1.15-.38.3-.8.5-1.26.6-.46.12-.95.12-1.46.03-.52-.1-.97-.28-1.36-.55-.4-.26-.71-.6-.95-1.02-.24-.4-.4-.88-.47-1.41a5.38 5.38 0 0 1 .06-1.75Zm1.53-.2-.08.48c-.1.47-.12.9-.1 1.27.02.37.1.7.23.97.13.28.3.5.54.68.23.17.5.29.82.35.32.06.62.05.89-.03s.52-.22.74-.44c.22-.2.4-.48.57-.83.16-.34.28-.74.37-1.21l.08-.47c.1-.47.12-.9.1-1.27a2.8 2.8 0 0 0-.23-1c-.14-.27-.32-.5-.54-.67-.23-.17-.5-.29-.82-.35a1.96 1.96 0 0 0-.9.03c-.27.08-.51.23-.73.44-.22.22-.4.5-.57.84-.15.34-.28.75-.37 1.22ZM63.5 139.06l-1.37-.5 1.94-5.36a2.65 2.65 0 0 1 2.37-1.93c.52-.04 1.07.04 1.62.24.58.21 1.06.5 1.43.87.38.37.62.81.74 1.32.1.5.05 1.06-.17 1.67l-1.95 5.36-1.37-.5 1.94-5.36c.14-.38.19-.73.15-1.02-.05-.3-.17-.55-.37-.75-.2-.2-.46-.37-.8-.5a2.03 2.03 0 0 0-.91-.12c-.29.03-.54.14-.76.34-.22.2-.4.5-.54.88l-1.95 5.36ZM57.03 130.36l-1.28-.71c.32-.47.7-.83 1.14-1.08.44-.25.93-.36 1.48-.35.54.02 1.1.19 1.7.52a3.13 3.13 0 0 1 1.66 2.17c.1.46.1.94 0 1.45s-.3 1.03-.6 1.57l-.35.62c-.3.54-.64.98-1.02 1.34-.39.35-.8.6-1.23.77-.44.16-.9.22-1.36.18-.46-.05-.93-.2-1.4-.46a3.62 3.62 0 0 1-1.32-1.17 2.71 2.71 0 0 1-.45-1.43c-.01-.52.1-1.04.32-1.56l1.28.7c-.15.35-.22.67-.24.96-.01.29.06.56.22.8.15.25.4.47.76.67.3.16.58.25.86.26.28.01.55-.04.82-.17.26-.13.52-.33.77-.6.24-.27.47-.6.7-1l.34-.63c.21-.37.37-.73.47-1.08.1-.34.15-.66.13-.95a1.7 1.7 0 0 0-.25-.8 1.79 1.79 0 0 0-.67-.61c-.37-.2-.7-.31-.98-.32-.3-.01-.56.06-.8.22-.25.16-.48.39-.7.7ZM47.57 127.26l.74-.9 3.5 2.87-.74.9-3.5-2.87Zm.96 5.4 5.41-6.6 1.14.94-5.41 6.6-1.14-.94Zm-4.1-3.36 5.42-6.6 1.13.93-5.41 6.6-1.14-.93ZM28.94 102.77l3.05-1.13c.2.06.43.18.7.36.26.17.53.43.8.78a5.18 5.18 0 0 1 .99 2.88c-.02.48-.14.94-.36 1.36-.22.42-.53.8-.95 1.14-.41.34-.92.63-1.53.85l-.56.2c-.6.22-1.17.35-1.7.37a3.65 3.65 0 0 1-1.45-.22 2.93 2.93 0 0 1-1.13-.76 3.75 3.75 0 0 1-.76-1.28 3.78 3.78 0 0 1-.27-1.75c.06-.51.24-.96.54-1.33.3-.38.68-.69 1.15-.93l.5 1.35c-.26.15-.48.32-.66.53-.17.2-.28.45-.31.73-.05.28 0 .6.13.97.12.32.28.58.5.78.2.2.46.33.75.4.3.08.62.1.99.05a5.3 5.3 0 0 0 1.2-.3l.56-.2c.45-.17.82-.36 1.13-.58.3-.22.54-.46.71-.72.17-.27.27-.55.3-.85a2.2 2.2 0 0 0-.15-.93 3.43 3.43 0 0 0-.36-.75 1.6 1.6 0 0 0-.7-.6l-1.58.57.61 1.67-1.03.38-1.11-3.05ZM29.29 93.5l1.14-.25.93 4.43-1.14.24-.93-4.43Zm-6.36 5.53 8.35-1.75.3 1.43-8.35 1.76-.3-1.44Zm2.76-4.18 1.12-.23.81 3.85-1.12.24-.81-3.86Zm-3.6.19 1.14-.24.93 4.4-1.15.24-.92-4.4ZM20.8 88.4l8.52-.52.1 1.45-8.52.53-.1-1.46Zm-.16-2.67 1.17-.07.42 6.78-1.17.07-.42-6.78ZM20.58 76.51l8.47.99-.17 1.46-8.47-.99.17-1.46ZM22.37 65.7l8.16 2.48-.42 1.4-6.96 1.89 5.84 1.78-.42 1.4-8.17-2.48.43-1.4 6.98-1.9-5.86-1.78.42-1.4ZM26.88 53.62l7.36 4.3-.74 1.27-7.36-4.31.74-1.26Zm1.35-2.31 1.01.59-3.43 5.86-1.01-.6 3.43-5.85ZM36.57 46.02l.35.3c.49.42.87.87 1.15 1.33.28.46.46.92.53 1.4.07.46.03.92-.1 1.38a3.6 3.6 0 0 1-.73 1.27 3.23 3.23 0 0 1-2.5 1.22c-.48 0-.97-.09-1.47-.29-.5-.2-1-.51-1.49-.93l-.35-.3a5.38 5.38 0 0 1-1.15-1.33 3.82 3.82 0 0 1-.52-1.4c-.07-.48-.03-.94.1-1.39.14-.45.38-.88.72-1.28.35-.4.73-.7 1.16-.9.42-.2.88-.31 1.35-.31.48 0 .97.1 1.47.3.5.2.99.51 1.48.93Zm-.6 1.42-.37-.31a5.06 5.06 0 0 0-1.05-.71 2.59 2.59 0 0 0-.96-.3 1.7 1.7 0 0 0-.85.13c-.27.11-.5.3-.72.54-.2.24-.35.5-.41.78-.07.28-.07.56 0 .86.07.3.22.6.43.9.22.31.5.62.87.93l.36.32c.37.3.72.55 1.06.71.34.17.66.27.97.3.3.02.6-.02.86-.13s.5-.29.7-.53a1.75 1.75 0 0 0 .41-1.64c-.07-.3-.22-.61-.44-.92-.22-.3-.5-.62-.87-.93ZM39.37 36.93l1.12-.95 3.68 4.36c.42.5.66 1 .73 1.51.06.52-.01 1.02-.24 1.5-.23.48-.57.91-1.02 1.3-.47.39-.96.66-1.46.8-.52.14-1.02.13-1.51-.02-.5-.16-.95-.48-1.37-.98l-3.68-4.35 1.12-.95 3.68 4.35c.27.32.54.53.82.64.27.11.55.13.83.06.28-.07.55-.22.82-.45.27-.22.46-.47.57-.73.12-.26.14-.53.08-.83-.06-.29-.23-.6-.5-.9l-3.67-4.36ZM50.18 35.6l1.26-.75c.25.5.37 1 .37 1.52 0 .5-.15 1-.44 1.46-.28.46-.72.86-1.3 1.22a3.12 3.12 0 0 1-2.71.36c-.44-.15-.86-.4-1.25-.74a5.52 5.52 0 0 1-1.06-1.3l-.37-.61a5.4 5.4 0 0 1-.65-1.55c-.11-.51-.13-1-.05-1.45.08-.47.25-.89.52-1.27s.64-.7 1.1-.98a3.62 3.62 0 0 1 1.67-.57 2.7 2.7 0 0 1 1.46.33c.46.24.85.6 1.2 1.05l-1.26.76a2.7 2.7 0 0 0-.7-.68 1.33 1.33 0 0 0-.8-.21c-.3 0-.62.12-.97.33-.28.17-.5.37-.65.61-.15.24-.24.5-.26.8-.02.29.03.61.14.96.1.34.28.71.51 1.1l.37.62c.23.36.46.68.7.94.25.26.5.46.77.6.26.12.54.18.82.17.28 0 .57-.1.86-.28.36-.21.62-.44.77-.69.15-.25.22-.51.2-.8 0-.3-.1-.6-.25-.95ZM57.47 28.98l.41 1.09-4.23 1.6-.41-1.08 4.23-1.61Zm-5.16-1.85 3.03 7.97-1.38.53-3.02-7.98 1.37-.52Zm4.95-1.88 3.03 7.97-1.37.52-3.03-7.97 1.37-.52Z"/><circle cx="71.5" cy="25.5" r="1.5" fill="#161A34"/><circle cx="133.5" cy="99.5" r="1.5" fill="#161A34"/><circle cx="38.5" cy="117.5" r="1.5" fill="#161A34"/></svg>