<svg width="98" height="30" fill="none" xmlns="http://www.w3.org/2000/svg"><g clip-path="url(#a)"><path d="M28.29 21.26c-.15-.36-.3-.75-.45-1.08l-.7-1.56-.03-.03c-2.09-4.5-4.32-9.08-6.69-13.58l-.1-.18c-.23-.44-.47-.93-.72-1.38-.3-.54-.6-1.1-1.08-1.65a5.03 5.03 0 0 0-3.9-1.82 5.1 5.1 0 0 0-3.9 1.82 11.4 11.4 0 0 0-1.08 1.65c-.24.49-.47.96-.72 1.4l-.1.2c-2.32 4.5-4.6 9.07-6.69 13.57l-.05.05c-.21.5-.46 1-.7 1.54-.15.33-.3.69-.45 1.08a6.3 6.3 0 0 0 .92 6.25 6.45 6.45 0 0 0 5.92 2.4 8.04 8.04 0 0 0 3.02-1.03 15.33 15.33 0 0 0 3.76-3.11 16.17 16.17 0 0 0 3.75 3.12A8.05 8.05 0 0 0 22.12 30a6.5 6.5 0 0 0 4.25-1.55c1.18-1 1.95-2.4 2.17-3.92a5.5 5.5 0 0 0-.25-3.28v.01Zm-13.65 1.56c-1.63-2.06-2.7-3.96-3.06-5.58a4.81 4.81 0 0 1-.1-1.84c.07-.48.25-.9.5-1.25a3.23 3.23 0 0 1 2.66-1.33 3.17 3.17 0 0 1 2.66 1.32c.25.37.43.78.49 1.26.1.55.05 1.17-.1 1.84-.36 1.6-1.42 3.5-3.05 5.58Zm12.11 1.39a4.43 4.43 0 0 1-2.76 3.51c-.72.3-1.52.39-2.3.3a6 6 0 0 1-2.3-.79 14.81 14.81 0 0 1-3.45-2.9c2-2.44 3.2-4.66 3.66-6.64.22-.94.25-1.78.15-2.56a5.15 5.15 0 0 0-.81-2.06 5.07 5.07 0 0 0-4.27-2.14c-1.76 0-3.33.8-4.28 2.13-.42.62-.7 1.33-.8 2.07-.13.79-.1 1.66.15 2.56.45 1.98 1.69 4.23 3.66 6.66a13.57 13.57 0 0 1-3.45 2.92c-.8.45-1.54.69-2.3.78a4.57 4.57 0 0 1-3.33-.88 4.45 4.45 0 0 1-1.73-2.94c-.1-.75-.03-1.5.28-2.34.1-.3.23-.6.39-.96.2-.48.45-.99.69-1.5l.04-.06A305 305 0 0 1 10.6 5.86l.1-.19c.23-.45.47-.93.72-1.38.25-.48.51-.93.85-1.31a3.15 3.15 0 0 1 3.76-.82c.42.2.79.47 1.08.82.33.38.61.83.86 1.31.23.45.47.94.72 1.38l.1.19c2.31 4.47 4.56 9.04 6.65 13.5l.03.04c.24.48.45 1.03.69 1.5.15.36.3.65.4.96.18.85.27 1.6.18 2.35Zm13.23-1.6a4.83 4.83 0 0 1-3.75-1.71 6.09 6.09 0 0 1-1.53-4.2 6.47 6.47 0 0 1 1.58-4.3 5.03 5.03 0 0 1 3.88-1.74 4.13 4.13 0 0 1 3.52 1.8l.1-1.47h2.77V22.3h-2.79l-.1-1.65a4.27 4.27 0 0 1-3.68 1.95Zm.72-2.7c.55 0 1.04-.15 1.5-.42.41-.3.75-.7 1.02-1.17.24-.48.36-1.05.36-1.69a3.17 3.17 0 0 0-1.4-2.85 2.83 2.83 0 0 0-2.96 0c-.42.3-.76.7-1.03 1.17-.25.53-.37 1.1-.36 1.69a3.17 3.17 0 0 0 1.4 2.85c.45.27.93.42 1.47.42ZM51.3 7.93c0 .33-.06.63-.21.87s-.36.45-.64.6c-.27.15-.57.2-.87.2-.3 0-.61-.05-.89-.2a1.74 1.74 0 0 1-.63-.6 1.69 1.69 0 0 1-.21-.87 1.5 1.5 0 0 1 .85-1.47c.27-.15.56-.22.88-.22a1.77 1.77 0 0 1 1.52.8c.14.28.2.58.2.89Zm-3.23 14.34v-11.3h3.02v11.32h-3.03v-.02Zm11.1-8.34v.04c-.14-.07-.33-.1-.48-.12-.19-.04-.34-.04-.52-.04-.85 0-1.48.24-1.9.75-.46.51-.67 1.24-.67 2.16v5.56h-3.03V10.96h2.79l.1 1.71c.3-.6.66-1.05 1.17-1.38.51-.33 1.11-.5 1.72-.47.22 0 .43.02.6.05.1.03.16.03.22.06v3Zm1.21 8.34V6.32h3.03v6.1c.42-.55.9-.97 1.52-1.3a4.83 4.83 0 0 1 5.78 1.23 6.09 6.09 0 0 1 1.52 4.2 6.47 6.47 0 0 1-1.58 4.3 5.03 5.03 0 0 1-3.88 1.74 4.13 4.13 0 0 1-3.52-1.8l-.09 1.47-2.78.03v-.02Zm5.85-2.36c.54 0 1.03-.15 1.48-.42.42-.3.76-.7 1.03-1.17.25-.48.36-1.05.36-1.69 0-.63-.11-1.2-.36-1.68-.25-.46-.6-.86-1.03-1.17a2.83 2.83 0 0 0-2.96 0c-.43.3-.76.7-1.04 1.17-.25.53-.37 1.1-.36 1.69a3.17 3.17 0 0 0 1.4 2.85c.44.27.93.42 1.48.42Zm7.14 2.37V10.96h2.78l.1 1.47a3.74 3.74 0 0 1 3.36-1.77 3.94 3.94 0 0 1 3.63 2.29c.33.7.51 1.59.51 2.57v6.8h-3.03v-6.4c0-.79-.18-1.4-.54-1.87-.36-.45-.85-.7-1.48-.7-.46 0-.86.1-1.2.3-.34.22-.62.5-.83.88a2.5 2.5 0 0 0-.3 1.27v6.48h-3Zm11.9 0V6.31h3.03v6.1a4.42 4.42 0 0 1 3.54-1.78 4.83 4.83 0 0 1 3.76 1.72 6.1 6.1 0 0 1 1.5 4.2 6.46 6.46 0 0 1-1.57 4.29 5.03 5.03 0 0 1-3.88 1.74 4.13 4.13 0 0 1-3.51-1.8l-.09 1.48-2.78.02Zm5.87-2.37c.55 0 1.04-.15 1.48-.42.43-.3.76-.7 1.04-1.17.24-.48.36-1.05.36-1.69a3.17 3.17 0 0 0-1.4-2.85 2.83 2.83 0 0 0-2.96 0c-.42.3-.76.7-1.03 1.17-.26.52-.39 1.1-.36 1.69a3.17 3.17 0 0 0 1.4 2.85c.44.27.9.42 1.47.42Z" fill="#FF385C"/></g><defs><clipPath id="a"><path fill="#fff" transform="translate(.5)" d="M0 0h96.94v30H0z"/></clipPath></defs></svg>