<svg width="98" height="30" fill="none" xmlns="http://www.w3.org/2000/svg"><g clip-path="url(#a)" fill-rule="evenodd" clip-rule="evenodd"><path d="M60.64 23.46C55.01 27.73 46.84 30 39.81 30a37.14 37.14 0 0 1-25.44-9.97c-.53-.5-.06-1.16.57-.78A50.18 50.18 0 0 0 40.4 26.2c6.24 0 13.1-1.33 19.42-4.08.96-.42 1.75.64.82 1.35Z" fill="#F90"/><path d="M62.98 20.7c-.71-.94-4.76-.44-6.57-.22-.55.07-.64-.42-.14-.78 3.22-2.32 8.5-1.65 9.12-.87.61.78-.16 6.22-3.19 8.82-.46.4-.9.18-.7-.35.68-1.74 2.2-5.64 1.48-6.6Z" fill="#F90"/><path d="M56.53 3.28V1c0-.34.26-.57.56-.57h9.86c.32 0 .57.24.57.57v1.94c0 .33-.27.75-.74 1.42l-5.11 7.5c1.9-.05 3.9.24 5.63 1.23.38.23.49.56.52.88v2.42c0 .33-.36.71-.73.51a11.1 11.1 0 0 0-10.42.02c-.34.2-.7-.19-.7-.52v-2.3c0-.36 0-.99.37-1.55l5.92-8.72H57.1a.55.55 0 0 1-.57-.56ZM20.56 17.39h-3a.57.57 0 0 1-.54-.52V1.05c0-.31.26-.56.58-.56h2.8c.3 0 .52.24.54.52v2.07H21c.73-2 2.1-2.93 3.95-2.93 1.88 0 3.05.93 3.9 2.93.72-2 2.37-2.93 4.14-2.93 1.26 0 2.63.53 3.47 1.73.95 1.33.76 3.26.76 4.96v9.98c0 .31-.27.57-.59.57h-3a.58.58 0 0 1-.53-.57V8.44c0-.67.06-2.33-.09-2.97-.22-1.06-.9-1.36-1.76-1.36a2 2 0 0 0-1.8 1.3c-.3.8-.27 2.13-.27 3.03v8.38c0 .31-.26.57-.58.57h-3a.58.58 0 0 1-.54-.57V8.44c0-1.77.28-4.36-1.85-4.36-2.16 0-2.07 2.53-2.07 4.36v8.38c0 .31-.26.57-.58.57M76.01.15c4.45 0 6.86 3.93 6.86 8.92 0 4.82-2.66 8.65-6.86 8.65-4.37 0-6.75-3.93-6.75-8.82 0-4.92 2.41-8.75 6.75-8.75Zm.03 3.23c-2.21 0-2.35 3.1-2.35 5.02 0 1.94-.03 6.06 2.32 6.06 2.33 0 2.44-3.33 2.44-5.36A15 15 0 0 0 78 4.91c-.34-1.1-1-1.53-1.96-1.53ZM88.65 17.39h-2.99a.58.58 0 0 1-.54-.57V1a.57.57 0 0 1 .57-.51h2.78c.27 0 .48.19.54.44v2.42h.05c.84-2.17 2.02-3.2 4.1-3.2 1.34 0 2.65.5 3.5 1.86.78 1.27.78 3.4.78 4.93v9.95a.58.58 0 0 1-.58.5h-3a.57.57 0 0 1-.54-.5V8.3c0-1.73.2-4.26-1.88-4.26-.73 0-1.4.5-1.73 1.27a7.17 7.17 0 0 0-.48 3v8.5c0 .32-.26.58-.58.58M48.67 9.84c0 1.2.03 2.2-.56 3.26-.47.87-1.23 1.4-2.07 1.4-1.16 0-1.83-.9-1.83-2.23 0-2.62 2.29-3.1 4.46-3.1v.67Zm3.03 7.5c-.2.19-.49.2-.71.08-1-.85-1.18-1.24-1.72-2.05-1.65 1.72-2.82 2.24-4.95 2.24-2.52 0-4.49-1.6-4.49-4.8 0-2.5 1.32-4.2 3.2-5.04 1.63-.74 3.9-.87 5.64-1.07v-.4c0-.73.06-1.6-.36-2.23-.37-.57-1.07-.8-1.69-.8-1.14 0-2.16.6-2.4 1.85-.06.28-.26.55-.53.56l-2.9-.32c-.25-.06-.53-.26-.46-.65C41 1.1 44.2 0 47.04 0c1.46 0 3.37.4 4.52 1.53 1.46 1.4 1.32 3.27 1.32 5.3v4.8c0 1.45.59 2.08 1.14 2.86.19.28.23.61-.02.82-.6.52-1.7 1.5-2.3 2.05v-.01M9.34 9.84c0 1.2.03 2.2-.56 3.26-.48.87-1.23 1.4-2.08 1.4-1.15 0-1.82-.9-1.82-2.23 0-2.62 2.3-3.1 4.46-3.1v.67Zm3.03 7.5c-.2.19-.49.2-.71.08-1-.85-1.18-1.24-1.72-2.05-1.65 1.72-2.81 2.24-4.95 2.24C2.47 17.6.5 16 .5 12.8c0-2.5 1.32-4.2 3.2-5.04 1.63-.74 3.9-.87 5.64-1.07v-.4c0-.73.06-1.6-.36-2.23-.37-.57-1.07-.8-1.69-.8-1.14 0-2.16.6-2.41 1.85-.05.28-.25.55-.52.56l-2.91-.32C1.2 5.3.93 5.1 1 4.71 1.67 1.1 4.86 0 7.71 0c1.46 0 3.37.4 4.52 1.53 1.46 1.4 1.32 3.27 1.32 5.3v4.8c0 1.45.58 2.08 1.13 2.86.2.28.24.61 0 .82-.62.52-1.7 1.5-2.3 2.05l-.01-.01" fill="#1D1E25"/></g><defs><clipPath id="a"><path fill="#fff" transform="translate(.5)" d="M0 0h96.94v30H0z"/></clipPath></defs></svg>