<svg width="140" height="66" fill="none" xmlns="http://www.w3.org/2000/svg"><path d="m68.15 35.98 4.57 2.38a10.78 10.78 0 0 1-3.6 3 10 10 0 0 1-4.72 1.14c-1.91 0-3.66-.47-5.24-1.41a10.82 10.82 0 0 1-3.77-3.79A10.3 10.3 0 0 1 54 32.02a10.63 10.63 0 0 1 6.37-9.7c1.26-.55 2.6-.82 4.03-.82a10 10 0 0 1 4.72 1.14c1.45.75 2.65 1.77 3.6 3.04l-4.57 2.36a5.07 5.07 0 0 0-6.45-.88c-.8.52-1.45 1.2-1.92 2.07-.47.85-.7 1.78-.7 2.79a5.73 5.73 0 0 0 2.62 4.84 4.98 4.98 0 0 0 6.45-.88ZM84.96 42.5c-1.91 0-3.66-.47-5.24-1.41a10.82 10.82 0 0 1-3.77-3.79 10.3 10.3 0 0 1-1.4-5.28 10.63 10.63 0 0 1 6.37-9.7c1.27-.55 2.61-.82 4.04-.82 1.91 0 3.65.47 5.22 1.41A10.54 10.54 0 0 1 89 41.68c-1.25.55-2.6.82-4.04.82Zm0-4.86c1.01 0 1.92-.26 2.72-.78a5.5 5.5 0 0 0 1.9-2.05c.47-.85.7-1.78.7-2.79a5.6 5.6 0 0 0-.72-2.83 5.42 5.42 0 0 0-4.6-2.83c-1 0-1.9.26-2.7.78a5.77 5.77 0 0 0-2.62 4.88 5.64 5.64 0 0 0 2.66 4.88c.82.5 1.7.74 2.66.74ZM111.58 35.98l4.58 2.38a10.79 10.79 0 0 1-3.6 3 10 10 0 0 1-4.73 1.14c-1.91 0-3.66-.47-5.24-1.41a10.82 10.82 0 0 1-3.76-3.79 10.3 10.3 0 0 1-1.4-5.28 10.63 10.63 0 0 1 6.37-9.7c1.26-.55 2.6-.82 4.03-.82a10 10 0 0 1 4.73 1.14 10.6 10.6 0 0 1 3.6 3.04l-4.58 2.36a5.08 5.08 0 0 0-6.45-.88c-.8.52-1.44 1.2-1.91 2.07-.48.85-.71 1.78-.71 2.79a5.72 5.72 0 0 0 2.62 4.84 4.97 4.97 0 0 0 6.45-.88ZM134.92 22.06H140v19.92h-5.08l-.22-2.47a6.43 6.43 0 0 1-5.57 2.99 11.18 11.18 0 0 1-10.29-6.55 10.16 10.16 0 0 1-.85-4.15 9.96 9.96 0 0 1 3.12-7.3 10.86 10.86 0 0 1 7.57-3c1.38 0 2.6.3 3.69.88a9.4 9.4 0 0 1 2.78 2.23l-.23-2.55ZM129 37.82a5.32 5.32 0 0 0 4.82-2.87c.47-.9.7-1.87.7-2.93 0-1.08-.23-2.05-.7-2.93A5.4 5.4 0 0 0 129 26.2a5.6 5.6 0 0 0-2.94.8 5.7 5.7 0 0 0-2.87 5.02c0 1.08.27 2.05.8 2.93a5.97 5.97 0 0 0 2.1 2.1c.88.5 1.85.77 2.9.77Z" fill="#fff"/><circle cx="21" cy="30.5" r="21" fill="#fff"/><path d="m27.45 35.44 4.55 2.3a12.18 12.18 0 0 1-4.23 3.46 12 12 0 0 1-5.53 1.3c-2.26 0-4.31-.54-6.17-1.62a12.55 12.55 0 0 1-4.43-4.32A11.5 11.5 0 0 1 10 30.52c0-1.67.32-3.22.95-4.67a12.13 12.13 0 0 1 6.54-6.42c1.48-.62 3.07-.93 4.75-.93a12 12 0 0 1 5.53 1.3c1.7.86 3.12 2.02 4.23 3.48l-4.55 2.3a6.87 6.87 0 0 0-2.4-1.73 6.81 6.81 0 0 0-6.46.41 7.45 7.45 0 0 0-2.57 2.66 7.17 7.17 0 0 0-.93 3.6c0 1.3.32 2.5.95 3.6a7.51 7.51 0 0 0 2.57 2.64c1.1.67 2.3 1 3.63 1a7.23 7.23 0 0 0 5.21-2.32Z" fill="#000"/></svg>