<svg width="95" height="30" fill="none" xmlns="http://www.w3.org/2000/svg"><g clip-path="url(#a)"><path d="m70.43 28.22 7.85-8.66-7.85-8.66h8.28l3.89 4.2 3.74-4.2h8l-7.82 8.63 7.92 8.7h-8.31l-3.85-4.25-3.82 4.24h-8.03Z" fill="#F60"/><path d="M70.43 7.02h-8.89v3.88h8.9v5.85h-8.9v5.37h8.9v6.1H55V.94h15.42v6.08Z" fill="#F60"/><path d="M48.5.94V12.1h-.07c-1.44-1.62-3.24-2.19-5.33-2.19-4.28 0-7.5 2.86-8.63 6.63-1.29-4.16-4.62-6.7-9.55-6.7-4 0-7.17 1.76-8.82 4.64V10.9H7.82V7.02h9.04V.94H.44v27.28h7.38V16.75h7.36c-.22.84-.34 1.75-.34 2.7 0 5.69 4.43 9.68 10.08 9.68 4.75 0 7.89-2.19 9.54-6.18h-6.32c-.86 1.2-1.5 1.55-3.22 1.55-1.98 0-3.7-1.7-3.7-3.7h12.89c.56 4.51 4.14 8.41 9.06 8.41a6.34 6.34 0 0 0 5.26-2.76h.07v1.77H55V.94h-6.5Zm-27.07 15.9a3.54 3.54 0 0 1 3.5-2.87c1.87 0 3.17 1.1 3.51 2.86h-7Zm23.12 7.23c-2.4 0-3.89-2.2-3.89-4.49 0-2.45 1.3-4.8 3.9-4.8 2.68 0 3.75 2.35 3.75 4.8 0 2.32-1.13 4.49-3.76 4.49Z" fill="#652C8F"/></g><defs><clipPath id="a"><path fill="#fff" transform="translate(.44 .94)" d="M0 0h94.12v28.13H0z"/></clipPath></defs></svg>