<svg width="90" height="30" fill="none" xmlns="http://www.w3.org/2000/svg"><g clip-path="url(#a)"><path d="M38.31 15.38A7.17 7.17 0 0 1 31 22.62a7.17 7.17 0 0 1-7.31-7.24c0-4.19 3.28-7.23 7.31-7.23a7.15 7.15 0 0 1 7.31 7.23Zm-3.2 0c0-2.6-1.9-4.38-4.11-4.38-2.2 0-4.11 1.78-4.11 4.38 0 2.58 1.9 4.39 4.11 4.39 2.2 0 4.11-1.81 4.11-4.39Z" fill="#EA4335"/><path d="M54.1 15.38a7.17 7.17 0 0 1-7.32 7.24 7.17 7.17 0 0 1-7.32-7.24 7.16 7.16 0 0 1 7.32-7.23 7.15 7.15 0 0 1 7.31 7.23Zm-3.2 0c0-2.6-1.91-4.38-4.12-4.38s-4.11 1.78-4.11 4.38c0 2.58 1.9 4.39 4.1 4.39 2.22 0 4.12-1.81 4.12-4.39Z" fill="#FBBC05"/><path d="M69.21 8.59v12.98c0 5.35-3.17 7.53-6.93 7.53a6.94 6.94 0 0 1-6.46-4.27l2.79-1.15a4.02 4.02 0 0 0 3.67 2.57c2.4 0 3.9-1.47 3.9-4.24v-1.04h-.12a4.98 4.98 0 0 1-3.84 1.64 7.19 7.19 0 0 1-6.98-7.2c0-4.08 3.34-7.26 6.98-7.26 1.74 0 3.12.77 3.84 1.62h.11V8.59h3.04ZM66.4 15.4c0-2.55-1.71-4.4-3.9-4.4-2.2 0-4.05 1.85-4.05 4.4 0 2.52 1.85 4.36 4.06 4.36 2.18 0 3.89-1.84 3.89-4.36Z" fill="#4285F4"/><path d="M74.23.98v21.2H71.1V.97h3.13Z" fill="#34A853"/><path d="m86.4 17.77 2.48 1.64a7.27 7.27 0 0 1-6.07 3.2 7.1 7.1 0 0 1-7.24-7.23c0-4.3 3.12-7.23 6.88-7.23 3.78 0 5.63 2.99 6.24 4.6l.33.82-9.75 4a3.71 3.71 0 0 0 3.54 2.2c1.63 0 2.76-.8 3.59-2Zm-7.65-2.6 6.51-2.7c-.36-.9-1.43-1.52-2.7-1.52a3.98 3.98 0 0 0-3.81 4.21Z" fill="#EA4335"/><path d="M11.87 13.5v-3.07h10.42c.1.54.15 1.17.15 1.86 0 2.3-.63 5.15-2.68 7.17-1.98 2.06-4.53 3.15-7.9 3.15C5.64 22.61.39 17.57.39 11.38S5.63.15 11.87.15c3.45 0 5.9 1.35 7.76 3.1L17.44 5.4a7.92 7.92 0 0 0-5.57-2.19 8.09 8.09 0 0 0-8.12 8.16 8.09 8.09 0 0 0 8.12 8.17 7.6 7.6 0 0 0 5.71-2.25 6.34 6.34 0 0 0 1.68-3.8h-7.4Z" fill="#4285F4"/></g><defs><clipPath id="a"><path fill="#fff" transform="translate(.26)" d="M0 0h89.41v30H0z"/></clipPath></defs></svg>