<svg width="115" height="26" fill="none" xmlns="http://www.w3.org/2000/svg"><g clip-path="url(#a)"><path d="m40.62 14.85-.69 1.93h-.05c-.12-.44-.33-1.1-.67-1.9l-3.67-9.15h-3.59v14.6h2.38v-9.01c0-.57 0-1.21-.02-2-.02-.4-.06-.7-.08-.93h.06c.11.57.25.98.34 1.25l4.41 10.65h1.67L45.1 9.54c.1-.24.19-.73.28-1.15h.06c-.06 1.08-.1 2.04-.12 2.63v9.25h2.53V5.7h-3.46l-3.76 9.16Zm9.62-5.04h2.47v10.46h-2.47V9.81Zm1.25-4.42c-.42 0-.76.15-1.04.41-.29.27-.44.6-.44 1.02 0 .4.15.74.44 1 .28.27.62.4 1.04.4.42 0 .78-.15 1.05-.4.28-.26.44-.6.44-1s-.16-.74-.44-1.02a1.4 1.4 0 0 0-1.05-.41Zm9.98 4.32c-.45-.1-.93-.15-1.38-.15a6 6 0 0 0-3 .74 4.95 4.95 0 0 0-1.99 2.02 6.4 6.4 0 0 0-.01 5.72c.43.8 1.04 1.44 1.86 1.88.78.43 1.7.66 2.72.66a6 6 0 0 0 2.98-.7l.02-.02v-2.27l-.1.08a4.26 4.26 0 0 1-2.37.85c-.99 0-1.77-.29-2.32-.91a3.47 3.47 0 0 1-.85-2.47c0-1.08.28-1.93.87-2.56a3.06 3.06 0 0 1 2.32-.94c.8 0 1.61.26 2.36.8l.1.07v-2.4l-.03-.02c-.32-.13-.68-.28-1.18-.38Zm8.16-.07c-.6 0-1.18.19-1.67.58-.42.34-.7.83-.95 1.42h-.02V9.8h-2.47v10.46h2.47v-5.34c0-.91.19-1.67.6-2.21a1.9 1.9 0 0 1 1.6-.85c.23 0 .46.05.74.1.27.07.46.14.6.24l.09.07V9.83l-.06-.02a1.89 1.89 0 0 0-.93-.17Zm6.73-.06c-1.73 0-3.12.51-4.09 1.51-.99 1-1.46 2.38-1.46 4.12 0 1.63.5 2.95 1.44 3.91a5.25 5.25 0 0 0 3.86 1.44c1.7 0 3.04-.51 4.01-1.53a5.59 5.59 0 0 0 1.47-4.07c0-1.66-.46-2.98-1.4-3.94-.88-.97-2.2-1.44-3.83-1.44Zm1.98 8.05c-.46.59-1.18.87-2.08.87a2.6 2.6 0 0 1-2.13-.9c-.5-.6-.76-1.44-.76-2.52 0-1.12.27-1.97.76-2.57.52-.6 1.22-.9 2.11-.9.88 0 1.56.28 2.06.86.5.59.76 1.44.76 2.55-.04 1.14-.25 2.02-.72 2.6Zm8.76-3.48a5.93 5.93 0 0 1-1.5-.77 1.07 1.07 0 0 1-.29-.8c0-.28.12-.56.4-.75.29-.2.61-.29 1.09-.29.41 0 .85.08 1.27.2.42.1.8.28 1.1.5l.1.08v-2.3L89.2 10a6.9 6.9 0 0 0-2.34-.44c-1.18 0-2.15.28-2.9.9a2.79 2.79 0 0 0-1.13 2.31c0 .5.08.93.25 1.29.17.36.42.7.76.98.34.27.84.57 1.52.85.57.25 1 .44 1.27.59.27.15.44.32.57.45.1.15.16.34.16.59 0 .7-.54 1.04-1.62 1.04a5.3 5.3 0 0 1-2.76-.94l-.1-.09v2.4l.07.02a7.42 7.42 0 0 0 2.75.59c1.28 0 2.32-.28 3.06-.9a2.89 2.89 0 0 0 1.16-2.39c0-.7-.19-1.32-.6-1.8a7.72 7.72 0 0 0-2.23-1.3Zm9.35-4.57c-1.73 0-3.11.51-4.08 1.51a5.69 5.69 0 0 0-1.47 4.12c0 1.63.5 2.95 1.45 3.91a5.25 5.25 0 0 0 3.86 1.44c1.69 0 3.04-.51 4-1.53a5.59 5.59 0 0 0 1.47-4.07c0-1.66-.46-2.98-1.39-3.94-.9-.97-2.2-1.44-3.84-1.44Zm1.96 8.05c-.46.59-1.18.87-2.07.87-.91 0-1.62-.29-2.13-.9-.51-.6-.76-1.44-.76-2.52 0-1.12.27-1.97.76-2.57.51-.6 1.22-.9 2.11-.9.86 0 1.56.28 2.05.86.5.59.76 1.44.76 2.55a4.1 4.1 0 0 1-.72 2.6Zm16.48-5.8V9.8h-2.49V6.7l-.07.02-2.36.7-.06.01v2.37h-3.72V8.48c0-.6.15-1.07.41-1.38.27-.3.67-.45 1.16-.45.35 0 .7.08 1.1.25l.1.05V4.82l-.05-.02c-.35-.11-.8-.19-1.4-.19-.73 0-1.38.17-1.97.45-.59.33-1.03.76-1.35 1.35-.32.56-.5 1.2-.5 1.94v1.46h-1.72v2h1.73v8.46h2.49v-8.44h3.72v5.38c0 2.21 1.05 3.33 3.14 3.33.34 0 .7-.06 1.05-.11.36-.08.62-.17.77-.25l.02-.02v-2.02l-.1.07c-.14.1-.28.18-.5.23-.2.06-.37.08-.5.08-.5 0-.84-.12-1.08-.4-.23-.26-.34-.7-.34-1.34v-4.95h2.52Z" fill="#737373"/><path d="M.09.81h11.65V12.4H.1V.8Z" fill="#F25022"/><path d="M12.96.81H24.6V12.4H12.96V.8Z" fill="#7FBA00"/><path d="M.09 13.6h11.65V25.2H.1V13.6Z" fill="#00A4EF"/><path d="M12.96 13.6H24.6V25.2H12.96V13.6Z" fill="#FFB900"/></g><defs><clipPath id="a"><path fill="#fff" transform="translate(.09 .81)" d="M0 0h114.82v24.38H0z"/></clipPath></defs></svg>