<svg width="93" height="32" fill="none" xmlns="http://www.w3.org/2000/svg"><g clip-path="url(#a)" fill-rule="evenodd" clip-rule="evenodd"><path d="M81.68 14.91 75.8 25.07l-5.01.02L81.68 5.97 92.52 25.1h-5.1l-5.74-10.18Zm-15.81 5.76h5.61l-2.6 4.42h-7.32l.02-5.38V6.09h4.31l-.02 14.58ZM50.49 6.09a9.58 9.58 0 0 1 9.65 9.51 9.6 9.6 0 0 1-9.7 9.47 9.6 9.6 0 0 1-9.65-9.5 9.6 9.6 0 0 1 9.7-9.48Zm-.02 14.56a5.1 5.1 0 0 0 5.16-5.05 5.1 5.1 0 0 0-5.14-5.07 5.1 5.1 0 0 0-5.17 5.05 5.1 5.1 0 0 0 5.15 5.07Zm-17.65-6.56a14.36 14.36 0 0 0-3.7-8.39c-.77-.82-1.63-1.6-2.92-2.5-.97-.48-1.94-1-2.88-1.55-.62-.35-1.36-.78-2.34-1.1a16.86 16.86 0 0 0-7-.17c-1.18.2-2.16.5-3.46.82a17.86 17.86 0 0 0-7.2 5.76c-6.85 9.6-.65 23.07 10.78 24.66 1.89.25 3.77.15 5.55-.26l1.27-.33c.04-.02.1-.04.14-.04l1.44-.55.22-.1.6-.28a16.44 16.44 0 0 0 3.23-2.1c-.9.82-1.89 1.55-2.93 2.18l.06.04c.2-.06.38-.12.58-.16 0 0 0 .32-.04.26-.32.24.18.02.82-.31.64-.34 1.27-.75 1.83-1.22.82-.69 1.54-1.44 2.56-2.65 1.04-1.83 2.35-3.42 2.95-5.57a12.38 12.38 0 0 0 .44-6.44ZM17.99 30.24c3.5-.55 6.45-2.5 8.86-5.15.66-.96 1.18-1.84 1.82-2.8.8-1.97.74-3.72 1-4.96.32-2.24-.44-4.05-1.08-5.97a10.29 10.29 0 0 0-4.57-5.2C18.25 2.57 10.4 3.57 6.65 8.91c-.02 0-.12.14-.32.42.26-1.1.92-1.75 1.58-2.38a17.16 17.16 0 0 1 6.86-3.52c2.94-.31 5.87 0 8.49 1.28 3.93 2.24 6.53 5.76 7.2 9.92v3.85c-.83 6.3-6.24 11.1-12.47 11.75ZM32.4 15.9C32.27 6.66 23.1.44 14.2 1.7A18.2 18.2 0 0 0 6.7 5.44c-.98.64-1.44 1.84-2.42 2.8-3.93 5.76-3.25 13.13 1.64 17.61.63.62 1.3 1.2 2 1.73C3.85 25.13 2 21.42 1.36 16.9c0-1.61.32-3.2.66-4.81C4.31 5.03 11.5-.1 19.33 1.2c1.3.32 2.6.65 3.93.96 1.64.65 3.27 1.61 4.57 2.9 1.3 1.27 2.28 2.88 3.26 4.47.67 1.28.99 2.89 1.3 4.17.07.72.07 1.47 0 2.2Z" fill="#1D1E25"/><path d="M24.26 16.04c0 3.97-3.32 7.19-7.43 7.19a7.32 7.32 0 0 1-7.43-7.2c0-3.96 3.32-7.19 7.43-7.19 4.1 0 7.43 3.23 7.43 7.2Z" fill="#fff"/><path d="M24.3 14.82c-.1-.55-.26-.98-.42-1.6a8.41 8.41 0 0 0-2.82-3.26c-4.65-3.08-11.04-.11-11.72 5.15a7.25 7.25 0 0 0 1.8 5.62c-.4-.41-.84-.84-1.14-1.33l-.04.04c.04.11.2.2.24.31 0 0-.16 0-.12-.02-.12-.14-.02.08.16.37.16.3.36.57.6.83.34.37.7.7 1.3 1.16.89.45 1.67 1.04 2.69 1.31a5.73 5.73 0 0 0 3.09.18 6.95 6.95 0 0 0 3.99-1.77c.37-.35.91-.8 1.33-1.4.34-.66.38-1 .54-1.29.16-.3.36-.63.5-1.08.12-.54.19-1.08.2-1.63a8.18 8.18 0 0 0-.18-1.6Zm-4.77-3.66c.69.4.79.46.42.2.53.12.85.41 1.17.7a7.78 7.78 0 0 1 1.74 3.13 6.85 6.85 0 0 1-.54 3.91 6.65 6.65 0 0 1-4.69 3.38c-.22 0-.46 0-.68.02.56-.1.92-.45 1.94-.83 1.1-.39 2.35-2.21 2.95-3.28 1.76-2.89-.32-5.56-2.3-7.23Zm-3.76 11.36a6.49 6.49 0 0 1-5.71-5.7c.28 1.61 1.24 2.85 2.54 3.95.46.3 1.14.7 1.6 1 .79.3 1.25.61 2 .75h-.43Zm8.2-5.25-.43 1.81c-.3.75-.74 1.52-1.34 2.12-.6.61-1.36 1.08-2.12 1.54-.6.31-1.37.47-1.99.62-.36.04-.78-.11-1.14-.13 4.45-.12 7.5-4.27 6.83-8.37a9.67 9.67 0 0 0-1.74-3.28c-.32-.46-.94-.73-1.4-1.18-2.79-1.75-6.47-1.4-8.58.9a7.47 7.47 0 0 1 4.27-2.18c.76-.02 1.54.12 2.3.26 3.37 1.02 5.87 4.28 5.33 7.9Z" fill="#D7DF23"/></g><defs><clipPath id="a"><path fill="#fff" transform="translate(.38 .06)" d="M0 0h92.24v31.88H0z"/></clipPath></defs></svg>