<svg width="81" height="30" fill="none" xmlns="http://www.w3.org/2000/svg"><g clip-path="url(#a)"><path d="M65.97 28.73c7.51 0 13.62-6.19 13.62-13.79 0-7.6-6.1-13.78-13.62-13.78a13.72 13.72 0 0 0-13.62 13.78c0 7.6 6.11 13.79 13.62 13.79Zm0-18.7a4.9 4.9 0 0 1 4.86 4.9c0 2.72-2.18 4.92-4.86 4.92a4.89 4.89 0 0 1-4.85-4.91 4.89 4.89 0 0 1 4.85-4.92ZM14.6 28.72c7.5 0 13.62-6.19 13.62-13.79 0-7.6-6.11-13.78-13.62-13.78C7.09 1.16.97 7.34.97 14.94S7.08 28.73 14.6 28.73Zm0-18.7a4.9 4.9 0 0 1 4.86 4.9c0 2.72-2.18 4.92-4.86 4.92a4.89 4.89 0 0 1-4.85-4.91 4.89 4.89 0 0 1 4.85-4.92Zm25.68-.32L36.1 1.34H26.3l9.15 18.32v8.63h9.65v-8.63l9.15-18.32h-9.8L40.27 9.7Z" fill="#EE2E24"/></g><defs><clipPath id="a"><path fill="#fff" transform="translate(.97)" d="M0 0h79.06v30H0z"/></clipPath></defs></svg>