<svg width="164" height="26" fill="none" xmlns="http://www.w3.org/2000/svg"><path fill-rule="evenodd" clip-rule="evenodd" d="m11.23 3.8 2.03 4.3c.2.41.58.7 1.03.77l4.54.7c1.12.17 1.57 1.6.75 2.43l-3.28 3.34c-.32.33-.47.8-.4 1.27l.78 4.72c.2 1.16-.98 2.05-1.98 1.5l-4.06-2.23c-.4-.22-.88-.22-1.28 0L5.3 22.83c-1 .55-2.17-.34-1.98-1.5l.77-4.72c.08-.46-.07-.94-.39-1.27L.42 12c-.82-.82-.37-2.26.75-2.43l4.54-.7c.45-.06.83-.36 1.03-.78l2.03-4.3a1.34 1.34 0 0 1 2.46 0ZM39.23 3.8l2.03 4.3c.2.41.58.7 1.03.77l4.54.7c1.12.17 1.57 1.6.75 2.43l-3.28 3.34c-.32.33-.47.8-.4 1.27l.78 4.72c.2 1.16-.98 2.05-1.98 1.5l-4.06-2.23c-.4-.22-.88-.22-1.28 0l-4.06 2.23c-1 .55-2.17-.34-1.98-1.5l.77-4.72c.08-.46-.07-.94-.39-1.27L28.42 12c-.82-.82-.37-2.26.75-2.43l4.54-.7c.45-.06.83-.36 1.03-.78l2.03-4.3a1.34 1.34 0 0 1 2.46 0ZM67.23 3.8l2.03 4.3c.2.41.58.7 1.03.77l4.54.7c1.12.17 1.57 1.6.75 2.43l-3.28 3.34c-.32.33-.47.8-.4 1.27l.78 4.72c.2 1.16-.98 2.05-1.98 1.5l-4.06-2.23c-.4-.22-.88-.22-1.28 0l-4.06 2.23c-1 .55-2.17-.34-1.98-1.5l.77-4.72c.08-.46-.07-.94-.39-1.27L56.42 12c-.82-.82-.37-2.26.75-2.43l4.54-.7c.45-.06.83-.36 1.03-.78l2.03-4.3a1.34 1.34 0 0 1 2.46 0ZM95.23 3.8l2.03 4.3c.2.41.58.7 1.03.77l4.54.7c1.12.17 1.57 1.6.75 2.43l-3.28 3.34c-.32.33-.47.8-.4 1.27l.78 4.72c.2 1.16-.98 2.05-1.98 1.5l-4.06-2.23c-.4-.22-.88-.22-1.28 0l-4.06 2.23c-1 .55-2.17-.34-1.98-1.5l.77-4.72c.08-.46-.07-.94-.39-1.27L84.42 12c-.82-.82-.37-2.26.75-2.43l4.54-.7c.45-.06.83-.36 1.03-.78l2.03-4.3a1.34 1.34 0 0 1 2.46 0ZM123.23 3.8l2.03 4.3c.2.41.58.7 1.03.77l4.54.7c1.12.17 1.57 1.6.75 2.43l-3.28 3.34c-.32.33-.47.8-.4 1.27l.78 4.72c.2 1.16-.98 2.05-1.98 1.5l-4.06-2.23c-.4-.22-.88-.22-1.28 0l-4.06 2.23c-1 .55-2.17-.34-1.98-1.5l.77-4.72c.08-.46-.07-.94-.39-1.27L112.42 12c-.82-.82-.37-2.26.75-2.43l4.54-.7c.45-.06.84-.36 1.03-.78l2.03-4.3a1.34 1.34 0 0 1 2.46 0Z" fill="#FFD33C"/><path d="M144.96 19.16c-.71 0-1.35-.14-1.92-.41a3.48 3.48 0 0 1-1.35-1.14 2.99 2.99 0 0 1-.54-1.64h1.7c.04.5.27.9.67 1.23.4.32.88.48 1.44.48.45 0 .84-.1 1.19-.3.35-.21.62-.5.82-.86.2-.37.3-.78.3-1.25s-.1-.9-.31-1.26c-.2-.38-.49-.67-.85-.88a2.4 2.4 0 0 0-1.22-.32c-.36 0-.71.06-1.07.18-.35.12-.64.28-.86.48l-1.6-.24.65-5.87h6.4v1.5h-4.94l-.37 3.27h.06c.23-.22.53-.4.9-.56a3.56 3.56 0 0 1 4.42 1.66 4 4 0 0 1 .49 2 3.9 3.9 0 0 1-.51 2.03 3.7 3.7 0 0 1-1.43 1.4c-.6.33-1.29.5-2.07.5Zm6.8-.05a1.1 1.1 0 0 1-.8-.33 1.1 1.1 0 0 1-.34-.8c0-.32.12-.58.34-.8.22-.23.5-.34.8-.34.31 0 .58.11.8.34.23.22.34.48.34.8 0 .2-.06.4-.16.57-.1.17-.24.3-.41.4-.17.1-.36.16-.57.16Zm7.02.08a3.8 3.8 0 0 1-2.3-.7 4.38 4.38 0 0 1-1.46-2.06c-.34-.9-.5-1.98-.5-3.24 0-1.26.16-2.34.5-3.24.34-.89.83-1.57 1.46-2.04.65-.47 1.41-.7 2.3-.7.89 0 1.65.23 2.29.7a4.38 4.38 0 0 1 1.46 2.05c.34.89.51 1.97.51 3.23 0 1.27-.17 2.35-.5 3.25-.34.9-.83 1.58-1.47 2.05-.63.47-1.4.7-2.29.7Zm0-1.51c.79 0 1.4-.39 1.85-1.16.44-.77.67-1.88.67-3.33 0-.97-.1-1.78-.31-2.45a3.28 3.28 0 0 0-.87-1.52 1.9 1.9 0 0 0-1.34-.53c-.78 0-1.4.39-1.85 1.16a6.79 6.79 0 0 0-.67 3.34c0 .97.1 1.79.3 2.46.2.66.5 1.17.87 1.51.37.35.82.52 1.35.52Z" fill="#1D1E25"/></svg>