<svg width="28" height="34" fill="none" xmlns="http://www.w3.org/2000/svg"><path d="M10 19.3a1.5 1.5 0 1 0-2 2l2-2Zm2.3 4.4-1 1c.6.6 1.5.6 2 0l-1-1Zm7.8-5.6a1.5 1.5 0 0 0-2.2-2.2l2.2 2.2Zm4-9.4v20h3v-20h-3Zm-1.8 21.8H5.7v3h16.6v-3ZM3.8 28.7v-20h-3v20h3ZM5.7 6.8H9v-3H5.7v3Zm13.3 0h3.3v-3H19v3ZM5.7 30.5c-1 0-1.9-.8-1.9-1.8h-3c0 2.6 2.2 4.8 4.9 4.8v-3Zm18.5-1.8c0 1-.9 1.8-1.9 1.8v3c2.7 0 4.9-2.2 4.9-4.8h-3Zm3-20c0-2.7-2.2-4.9-4.9-4.9v3c1 0 1.9.9 1.9 1.9h3Zm-23.4 0c0-1 .9-1.9 1.9-1.9v-3A4.8 4.8 0 0 0 .8 8.7h3ZM8 21.4l3.4 3.3 2-2-3.2-3.4-2.2 2Zm5.5 3.3 6.7-6.6-2.2-2.2-6.6 6.7 2 2.1Zm-1-21.2h3.3v-3h-3.4v3Zm3.3 3.7h-3.4v3h3.4v-3Zm-3.4 0c-1 0-1.8-.9-1.8-1.9h-3c0 2.7 2.2 4.9 4.8 4.9v-3Zm5.2-1.9c0 1-.8 1.9-1.8 1.9v3c2.6 0 4.8-2.2 4.8-4.9h-3Zm-1.8-1.8c1 0 1.8.8 1.8 1.8h3c0-2.6-2.2-4.8-4.8-4.8v3Zm-3.4-3a4.8 4.8 0 0 0-4.8 4.8h3c0-1 .8-1.8 1.8-1.8v-3Z" fill="#fff"/></svg>