<svg width="113" height="28" fill="none" xmlns="http://www.w3.org/2000/svg"><g clip-path="url(#a)"><path d="M40.22 10.21v1.49h.05c.54-.8 1.43-1.74 3.42-1.74 1.54 0 2.73.78 3.23 1.96h.05a4.48 4.48 0 0 1 3.8-1.96c2.1 0 3.95 1.35 3.95 4.75v6.46h-3.19v-6c0-1.73-.63-2.73-1.93-2.73a2 2 0 0 0-1.92 1.34c-.09.25-.13.6-.13.89v6.5h-3.19v-6.25c0-1.46-.6-2.48-1.89-2.48-1.03 0-1.67.76-1.94 1.4-.11.28-.15.6-.15.9v6.43H37.2V10.2h3.03Zm30.95 0v2.07h.09a3.43 3.43 0 0 1 3.92-2.25v2.87c-.3-.04-.57-.08-.95-.08-1.38 0-2.34.76-2.59 1.93-.05.24-.07.5-.07.81v5.61H68.3V10.21h2.87Zm8.45-3.63v3.45h2.76v2.8h-2.76v4.1c0 1.34.36 1.99 1.44 1.99.5 0 .88-.06 1.2-.14l.05 2.32c-.44.15-1.36.31-2.3.31-1.1 0-2.02-.36-2.58-.91-.64-.64-.94-1.68-.94-3.16V6.58h3.13ZM34.97 21.17H31.8V6.58h3.17v14.59Zm-8.46-3.91c0 .2-.02.4-.08.59-.24.76-1.09 1.4-2.14 1.4-.88 0-1.57-.46-1.57-1.45 0-1.5 1.77-1.92 3.8-1.91v1.37h-.01Zm3.17-2.63c0-2.48-1.14-4.67-4.98-4.67a9.6 9.6 0 0 0-4.39.98l.63 2a6.76 6.76 0 0 1 3.2-.84c1.95 0 2.27 1.03 2.27 1.69v.16c-4.25 0-6.93 1.36-6.93 4.16 0 1.7 1.36 3.3 3.74 3.3 1.46 0 2.68-.53 3.41-1.4h.07s.49 1.89 3.16 1.16a14.9 14.9 0 0 1-.18-2.64v-3.9ZM3.53 6.58l1.26 6.03c.4 1.84.75 3.77 1.03 5.3h.04c.27-1.62.69-3.16 1.13-5.06l1.57-6.27h3.47l1.47 6.43c.38 1.79.69 3.17.93 4.83h.05c.26-1.68.6-3.12.99-4.95l1.4-6.3h3.34l-4.13 14.58c-2.63.53-3.64-.45-4-2.02l-1.06-4.55c-.37-1.64-.65-2.8-.85-4.47h-.05a44.47 44.47 0 0 1-1.01 4.46l-1.73 6.58c-2.69.5-3.62-.24-4.13-2.25L.02 6.58h3.5Zm59.48 10.68c0 .2-.02.4-.08.59-.24.76-1.09 1.4-2.14 1.4-.88 0-1.57-.46-1.57-1.45 0-1.5 1.77-1.92 3.8-1.91v1.37H63Zm3.17-2.63c0-2.48-1.14-4.67-4.97-4.67a9.6 9.6 0 0 0-4.4.98l.63 2a6.76 6.76 0 0 1 3.2-.84c1.95 0 2.27 1.03 2.27 1.69v.16c-4.25 0-6.93 1.36-6.93 4.16 0 1.7 1.37 3.3 3.74 3.3 1.46 0 2.68-.53 3.41-1.4h.08s.48 1.89 3.16 1.16c-.14-.79-.19-1.63-.19-2.64v-3.9Z" fill="#041E42"/><path d="M95.25 16.14c.3.54.29 1.13-.05 1.4l-5.77 3.96c-.6.34-1.5-.07-2-.94-.52-.86-.43-1.83.17-2.17l6.4-2.9c.4-.16.93.12 1.25.65Zm7.6 0c.3-.53.84-.8 1.25-.66l6.39 2.9c.6.35.69 1.31.18 2.18-.52.86-1.42 1.27-2.02.94l-5.77-3.96c-.33-.27-.35-.87-.04-1.4Zm-3.8 2.15c.62 0 1.14.32 1.2.73l.63 6.87c0 .68-.81 1.23-1.83 1.23s-1.84-.55-1.84-1.23l.62-6.87c.07-.41.59-.73 1.21-.73Zm3.83-7.83 5.77-3.96c.6-.34 1.5.07 2.02.94.5.86.42 1.83-.18 2.17l-6.4 2.9c-.4.15-.94-.12-1.25-.65-.31-.54-.29-1.13.04-1.4ZM94 12.52 87.6 9.6c-.6-.34-.69-1.3-.18-2.17.51-.87 1.42-1.28 2.01-.94l5.77 3.96c.34.26.36.86.05 1.4-.32.53-.86.8-1.26.66Zm3.84-3.54L97.2 2.1c0-.68.81-1.23 1.84-1.23 1.02 0 1.83.55 1.83 1.23l-.62 6.87c-.07.41-.59.73-1.22.73-.62 0-1.14-.32-1.21-.73Zm14.4 12.5v-.18h.16c.05 0 .08.03.08.09 0 .04-.03.08-.08.08h-.16Zm-.13.3c0 .02.01.04.03.04h.07c.02 0 .04-.02.04-.04v-.2h.1l.1.21c0 .02.01.03.02.03h.09c.02 0 .04-.03.03-.05a6.27 6.27 0 0 1-.1-.2.2.2 0 0 0 .13-.18c0-.14-.1-.21-.21-.21h-.27l-.03.03v.57Zm-.29-.28c0-.28.24-.5.52-.5s.52.22.52.5a.5.5 0 0 1-.52.5.5.5 0 0 1-.52-.5Zm-.12 0c0 .34.29.62.64.62.35 0 .64-.28.64-.62a.63.63 0 0 0-.64-.63.63.63 0 0 0-.64.63Z" fill="#FFC124"/></g><defs><clipPath id="a"><path fill="#fff" transform="translate(.03 .88)" d="M0 0h112.94v26.25H0z"/></clipPath></defs></svg>